<!--?xml version="1.0" standalone="no"?-->
              <svg id="sw-js-blob-svg" viewBox="0 0 100 100" xmlns="http://www.w3.org/2000/svg" version="1.1">
                    <defs> 
                        <linearGradient id="sw-gradient" x1="0" x2="1" y1="1" y2="0">
                            <stop id="stop1" stop-color="rgba(248, 117, 55, 1)" offset="0%"></stop>
                            <stop id="stop2" stop-color="rgba(251, 168, 31, 1)" offset="100%"></stop>
                        </linearGradient>
                    </defs>
                <path fill="url(#sw-gradient)" d="M26.9,-33.2C33.3,-26.5,36.2,-16.7,36.9,-7.3C37.6,2.1,36.2,11.1,31.7,17.8C27.3,24.5,19.7,29,11.4,32.6C3,36.2,-6.1,39,-14.3,37C-22.5,34.9,-29.7,28.2,-34.3,19.9C-39,11.7,-40.9,2.1,-38,-5.3C-35.1,-12.8,-27.2,-17.9,-20.1,-24.5C-12.9,-31.1,-6.5,-39.1,1.9,-41.3C10.2,-43.5,20.4,-39.9,26.9,-33.2Z" width="100%" height="100%" transform="translate(50 50)" stroke-width="0" style="transition: all 0.3s ease 0s;"></path>
              </svg>