<?xml version="1.0" encoding="UTF-8"?>
<svg version="1.1" xmlns="http://www.w3.org/2000/svg" width="128" height="128">
<path d="M0 0 C2.57502747 1.94010925 2.57502747 1.94010925 5.16333008 4.51635742 C5.87912231 5.21900726 5.87912231 5.21900726 6.609375 5.93585205 C8.17553273 7.48009225 9.7227899 9.04179897 11.26953125 10.60546875 C12.35642287 11.68899005 13.44405561 12.77176838 14.53239441 13.85383606 C16.80740679 16.12148744 19.07315706 18.39790842 21.33276367 20.6809082 C24.2255953 23.6022266 27.14029728 26.50052054 30.06232166 29.39260387 C32.31135688 31.62354555 34.54831512 33.86629194 36.78183556 36.11275673 C37.85184773 37.1860972 38.92556703 38.25575549 40.00306129 39.3215847 C41.50904173 40.81482296 42.99799577 42.32323551 44.48364258 43.83666992 C45.33380447 44.69080978 46.18396637 45.54494965 47.05989075 46.42497253 C49.29285252 49.38869115 49.83834575 51.3155365 50 55 C48.5 57.375 48.5 57.375 46 59 C43.66756635 59.06478982 41.33225775 59.0708396 39 59 C39.01571045 60.05912598 39.0314209 61.11825195 39.04760742 62.20947266 C39.10210122 66.15666026 39.13642046 70.10381489 39.16479492 74.05126953 C39.17983738 75.75640463 39.20027653 77.46150132 39.22631836 79.16650391 C39.26290284 81.62412012 39.27977173 84.08122269 39.29296875 86.5390625 C39.30845261 87.29555084 39.32393646 88.05203918 39.33988953 88.83145142 C39.34139802 93.62665009 38.60530467 96.8257377 36 101 C31.13149185 105.61227088 26.70180528 107.24133644 20.05151367 107.29052734 C18.87646774 107.30328705 17.70142181 107.31604675 16.49076843 107.32919312 C15.22924454 107.33141876 13.96772064 107.33364441 12.66796875 107.3359375 C11.36225418 107.3425943 10.05653961 107.3492511 8.71125793 107.35610962 C5.94996841 107.36806192 3.18880379 107.37179266 0.42749023 107.37060547 C-3.09298176 107.37040259 -6.61264369 107.3976803 -10.13292408 107.43214989 C-13.51180384 107.45987804 -16.89053939 107.45857109 -20.26953125 107.4609375 C-21.52498245 107.47530853 -22.78043365 107.48967957 -24.07392883 107.50448608 C-31.19901568 107.46747265 -35.97106624 106.9007331 -42 103 C-46.87747349 97.87239966 -47.14318672 93.64201275 -47.09765625 86.83203125 C-47.0962413 86.03721848 -47.09482635 85.2424057 -47.09336853 84.42350769 C-47.08777378 81.88646675 -47.07522228 79.34951425 -47.0625 76.8125 C-47.05748432 75.09179815 -47.05292153 73.37109492 -47.04882812 71.65039062 C-47.03780607 67.4335597 -47.02054506 63.21679484 -47 59 C-48.1034375 59.03351563 -49.206875 59.06703125 -50.34375 59.1015625 C-54 59 -54 59 -56.5 57.375 C-58 55 -58 55 -57.87998962 52.17427063 C-56.80088758 48.28176801 -55.28045409 46.67013126 -52.42016602 43.83666992 C-51.70787842 43.12087769 -51.70787842 43.12087769 -50.98120117 42.390625 C-49.41714587 40.82496187 -47.83605725 39.27782568 -46.25390625 37.73046875 C-45.16051631 36.64387142 -44.06815886 35.55623425 -42.97679138 34.46760559 C-40.69171933 32.19319444 -38.39889491 29.92702808 -36.09936523 27.66723633 C-33.14884808 24.7677062 -30.21144325 21.8553459 -27.27887058 18.93767834 C-24.48276898 16.15634942 -21.68147459 13.38027969 -18.87890625 10.60546875 C-18.34318056 10.07465384 -17.80745487 9.54383892 -17.25549507 8.99693871 C-15.74286038 7.5005502 -14.22672306 6.00781542 -12.70922852 4.51635742 C-11.84620621 3.66619553 -10.9831839 2.81603363 -10.0940094 1.94010925 C-6.50611732 -1.38408911 -4.69153234 -1.23941166 0 0 Z M-6.49331665 15.25280762 C-7.07511688 15.83904907 -7.65691711 16.42529053 -8.25634766 17.02929688 C-8.91688141 17.68998169 -9.57741516 18.3506665 -10.25796509 19.03137207 C-10.96947723 19.75320679 -11.68098938 20.4750415 -12.4140625 21.21875 C-13.14370209 21.95121948 -13.87334167 22.68368896 -14.62509155 23.43835449 C-16.9631104 25.78760224 -19.29409461 28.14369618 -21.625 30.5 C-23.20527194 32.09029823 -24.78599529 33.68014803 -26.3671875 35.26953125 C-30.25005192 39.17449196 -34.12715709 43.08510139 -38 47 C-37.67 47.66 -37.34 48.32 -37 49 C-36.87894699 52.00215222 -36.81424306 54.9850394 -36.7890625 57.98828125 C-36.76099004 59.8274828 -36.73232554 61.66667539 -36.703125 63.50585938 C-36.66188515 66.40909539 -36.62500304 69.31216486 -36.59863281 72.21557617 C-36.57099198 75.01516405 -36.52511595 77.81398833 -36.4765625 80.61328125 C-36.47330963 81.47802567 -36.47005676 82.34277008 -36.46670532 83.23371887 C-36.36927927 89.68275015 -36.36927927 89.68275015 -33 95 C-29.80624623 95.60557942 -29.80624623 95.60557942 -26.3125 95.3125 C-25.13300781 95.26738281 -23.95351563 95.22226563 -22.73828125 95.17578125 C-21.83464844 95.11777344 -20.93101563 95.05976562 -20 95 C-19.9906543 94.23333008 -19.98130859 93.46666016 -19.97167969 92.67675781 C-19.91797227 89.20051897 -19.83432424 85.72562526 -19.75 82.25 C-19.72873047 80.44015625 -19.72873047 80.44015625 -19.70703125 78.59375 C-19.67480469 77.43359375 -19.64257812 76.2734375 -19.609375 75.078125 C-19.58842773 74.00981445 -19.56748047 72.94150391 -19.54589844 71.84082031 C-18.87396227 68.34410778 -17.77267316 67.17052061 -15 65 C-11.34149645 63.78049882 -7.93596431 63.77746641 -4.125 63.75 C-3.41730469 63.729375 -2.70960937 63.70875 -1.98046875 63.6875 C2.56955333 63.65360784 5.36924392 64.24008947 9 67 C11.67848546 69.67848546 11.30504006 71.13970861 11.4140625 74.8828125 C11.47207031 76.63271484 11.47207031 76.63271484 11.53125 78.41796875 C11.5621875 79.64128906 11.593125 80.86460938 11.625 82.125 C11.66367188 83.35605469 11.70234375 84.58710937 11.7421875 85.85546875 C11.8366999 88.90349376 11.92225494 91.95150862 12 95 C14.10241603 95.13496251 16.2072961 95.23197307 18.3125 95.3125 C19.48425781 95.37050781 20.65601563 95.42851563 21.86328125 95.48828125 C25.07570955 95.30962103 25.07570955 95.30962103 26.88598633 93.06494141 C28.40837205 88.87646227 28.47888587 85.07557219 28.51171875 80.6484375 C28.53864555 79.30466537 28.53864555 79.30466537 28.56611633 77.93374634 C28.62012378 75.08087854 28.65406059 72.2281756 28.6875 69.375 C28.7206869 67.44789351 28.75517783 65.52080901 28.79101562 63.59375 C29.86185194 53.52735256 29.86185194 53.52735256 27.7986145 44.4243927 C27.23617035 43.86257797 26.6737262 43.30076324 26.09423828 42.72192383 C25.4600296 42.08148636 24.82582092 41.44104889 24.1723938 40.78120422 C23.47870697 40.09672714 22.78502014 39.41225006 22.0703125 38.70703125 C21.36478241 38.00100266 20.65925232 37.29497406 19.93234253 36.56755066 C18.43781431 35.07536515 16.93958651 33.58687734 15.43798828 32.10180664 C13.13268127 29.82010262 10.84098707 27.52536615 8.55078125 25.22851562 C7.0997493 23.78305971 5.64795189 22.33837172 4.1953125 20.89453125 C3.50567413 20.20398148 2.81603577 19.5134317 2.10549927 18.80195618 C1.46498627 18.17097519 0.82447327 17.5399942 0.16455078 16.88989258 C-0.39948456 16.33046463 -0.9635199 15.77103668 -1.54464722 15.19465637 C-3.60325416 13.50480637 -4.45941389 13.54647904 -6.49331665 15.25280762 Z M-9 75 C-9 81.6 -9 88.2 -9 95 C-5.7 95 -2.4 95 1 95 C1 88.4 1 81.8 1 75 C-2.3 75 -5.6 75 -9 75 Z " fill="#000000" transform="translate(68,11)"/>
</svg>
