<?xml version="1.0" encoding="utf-8"?>
<!-- Generator: Adobe Illustrator 28.0.0, SVG Export Plug-In . SVG Version: 6.00 Build 0)  -->
<svg version="1.1" id="_x31_" xmlns="http://www.w3.org/2000/svg" xmlns:xlink="http://www.w3.org/1999/xlink" x="0px" y="0px"
	 viewBox="0 0 606.96 451" style="enable-background:new 0 0 606.96 451;" xml:space="preserve">
<style type="text/css">
	.st0{fill:#513D43;}
	.st1{fill:#3D2D31;}
	.st2{fill:#82646A;}
	.st3{fill:#665053;}
	.st4{fill:#513F42;}
	.st5{fill:#CCCABA;}
	.st6{fill:#A8A198;}
	.st7{fill:#9B938A;}
	.st8{fill:#49373A;}
	.st9{fill:#543C40;}
	.st10{fill:#B7B29E;}
	.st11{fill:#60484C;}
	.st12{fill:#6C8EB7;}
	.st13{fill:#83B0DD;}
	.st14{fill:#98C7ED;}
	.st15{fill:#999187;}
	.st16{fill:#BCB3AA;}
	.st17{fill:#93897D;}
	.st18{fill:#C1B9A4;}
	.st19{fill:#3A2D30;}
</style>
<g>
	<g>
		<polygon class="st0" points="329.18,368.26 359.96,368.26 359.96,392.39 334.46,392.39 		"/>
		<polygon class="st0" points="331.13,324.39 364.72,324.82 365.29,354.11 334.51,354.11 		"/>
		<path class="st0" d="M339.56,355.06c2.1-18.56,14.1-32.03,26.79-30.07c12.69,1.95,21.28,18.58,19.18,37.15
			c-2.1,18.56-14.1,32.03-26.79,30.07C346.04,390.25,337.46,373.62,339.56,355.06z"/>
		<path class="st0" d="M348.42,356.18c1.44-12.68,9.63-21.88,18.31-20.55c8.67,1.33,14.54,12.7,13.1,25.38
			c-1.44,12.68-9.63,21.88-18.31,20.55C352.85,380.23,346.98,368.86,348.42,356.18z"/>
		<path class="st0" d="M349.38,356.57c1.2-10.63,8.07-18.34,15.34-17.22c7.27,1.12,12.19,10.64,10.98,21.27
			c-1.2,10.63-8.07,18.34-15.34,17.22C353.1,376.72,348.18,367.2,349.38,356.57z"/>
		<path class="st1" d="M310.13,354.73c1.21-18.73,12.55-32.31,25.34-30.34c12.79,1.97,22.18,18.75,20.97,37.47
			c-1.21,18.73-12.55,32.31-25.34,30.34C318.31,390.23,308.92,373.46,310.13,354.73z"/>
	</g>
	<ellipse class="st2" cx="330.25" cy="197.27" rx="13.59" ry="13.66"/>
	<rect x="237.5" y="65.22" class="st3" width="2.83" height="82.96"/>
	<polygon class="st4" points="135.99,198.41 130.09,198.41 122.86,261.49 135.99,261.49 	"/>
	<polygon class="st4" points="204.2,198.41 198.3,198.41 191.07,261.49 204.2,261.49 	"/>
	<polygon class="st4" points="224.94,174.02 113.37,174.02 54.17,252.45 165.74,252.45 	"/>
	<g>
		
			<ellipse transform="matrix(0.9999 -0.0136 0.0136 0.9999 -4.8597 3.3232)" class="st1" cx="241.45" cy="358.3" rx="23.26" ry="34.09"/>
		<polygon class="st1" points="237.34,368.26 268.12,368.26 268.12,392.39 242.62,392.39 		"/>
		<polygon class="st1" points="239.29,324.39 272.88,324.82 273.45,354.11 242.66,354.11 		"/>
		<path class="st1" d="M247.72,355.06c2.1-18.56,14.1-32.03,26.79-30.07c12.69,1.95,21.28,18.58,19.18,37.15
			c-2.1,18.56-14.1,32.03-26.79,30.07C254.2,390.25,245.62,373.62,247.72,355.06z"/>
		<path class="st1" d="M256.58,356.18c1.44-12.68,9.63-21.88,18.31-20.55c8.67,1.33,14.54,12.7,13.11,25.38
			c-1.44,12.68-9.63,21.88-18.31,20.55C261.01,380.23,255.14,368.86,256.58,356.18z"/>
		<path class="st1" d="M257.54,356.57c1.2-10.63,8.07-18.34,15.34-17.22c7.27,1.12,12.19,10.64,10.98,21.27
			c-1.2,10.63-8.07,18.34-15.34,17.22C261.26,376.72,256.34,367.2,257.54,356.57z"/>
	</g>
	<g>
		<polygon class="st4" points="128.57,356.71 88.33,356.71 88.33,349.86 124.19,349.86 146.1,302.39 152.32,305.26 		"/>
	</g>
	<g>
		<polygon class="st4" points="206.58,356.71 166.34,356.71 166.34,349.86 202.2,349.86 224.11,302.39 230.33,305.26 		"/>
	</g>
	<g>
		<polygon class="st1" points="214.44,356.71 254.69,356.71 254.69,349.86 218.83,349.86 196.91,302.39 190.69,305.26 		"/>
	</g>
	<g>
		<polygon class="st1" points="298.16,356.71 338.41,356.71 338.41,349.86 302.55,349.86 280.63,302.39 274.41,305.26 		"/>
	</g>
	<g>
		<polygon class="st1" points="373.13,356.71 413.37,356.71 413.37,349.86 377.51,349.86 355.6,302.39 349.38,305.26 		"/>
	</g>
	<g>
		<polygon class="st4" points="289.92,356.71 249.68,356.71 249.68,349.86 285.54,349.86 307.45,302.39 313.67,305.26 		"/>
	</g>
	<path class="st4" d="M391.14,300.59h-275.7c-4.89,0-8.85,3.96-8.85,8.85c0,4.89,3.96,8.85,8.85,8.85h275.7
		c4.89,0,8.85-3.96,8.85-8.85C399.99,304.55,396.03,300.59,391.14,300.59z"/>
	<rect x="235.22" y="142.66" class="st4" width="14.08" height="62.03"/>
	<polygon class="st3" points="249.3,158.46 241.4,161.28 241.4,204.69 249.3,204.69 	"/>
	<rect x="228.46" y="193.85" class="st5" width="35.96" height="14.56"/>
	<rect x="227.7" y="193.85" class="st6" width="16.08" height="14.56"/>
	<polygon class="st5" points="343.1,202.79 332.82,202.79 332.82,261.01 390.66,261.01 	"/>
	<polygon class="st6" points="365.93,230.74 343.1,202.79 326.59,202.79 332.82,239.53 	"/>
	<polygon class="st7" points="328.18,202.79 317.91,202.79 317.91,261.01 375.75,261.01 	"/>
	<rect x="326.21" y="253.4" class="st3" width="70.06" height="9.13"/>
	<rect x="308.56" y="253.4" class="st4" width="60.65" height="9.13"/>
	<polygon class="st3" points="271.37,198.6 226.84,198.6 221.52,260.25 287.35,260.25 	"/>
	<polygon class="st4" points="242.94,198.6 223.64,198.6 221.33,260.25 249.87,260.25 	"/>
	<g>
		
			<ellipse transform="matrix(0.0136 -0.9999 0.9999 0.0136 -275.6262 437.1909)" class="st8" cx="83.78" cy="358.3" rx="34.09" ry="23.26"/>
		<polygon class="st8" points="87.89,368.26 57.11,368.26 57.11,392.39 82.41,392.39 		"/>
		<polygon class="st8" points="85.93,324.39 52.35,324.82 51.78,354.11 82.56,354.11 		"/>
		<path class="st3" d="M77.51,355.06c-2.1-18.56-14.1-32.03-26.79-30.07c-12.69,1.95-21.28,18.58-19.18,37.15
			c2.1,18.56,14.1,32.03,26.79,30.07C71.02,390.25,79.61,373.62,77.51,355.06z"/>
		<path class="st9" d="M68.65,356.18c-1.44-12.68-9.63-21.88-18.31-20.55c-8.67,1.33-14.54,12.7-13.1,25.38
			c1.44,12.68,9.63,21.88,18.31,20.55C64.22,380.23,70.09,368.86,68.65,356.18z"/>
		<path class="st10" d="M67.68,356.57c-1.2-10.63-8.07-18.34-15.34-17.22c-7.27,1.12-12.19,10.64-10.98,21.27
			s8.07,18.34,15.34,17.22C63.97,376.72,68.89,367.2,67.68,356.57z"/>
	</g>
	<g>
		<path class="st8" d="M188.12,354.73c-1.21-18.73-12.55-32.31-25.34-30.34c-12.79,1.97-22.18,18.75-20.97,37.47
			c1.21,18.73,12.55,32.31,25.34,30.34C179.94,390.23,189.33,373.46,188.12,354.73z"/>
		<polygon class="st8" points="169.08,368.26 138.29,368.26 138.29,392.39 164.1,392.39 		"/>
		<polygon class="st8" points="167.12,324.39 133.54,324.82 132.97,354.11 163.75,354.11 		"/>
		<path class="st3" d="M158.7,355.06c-2.1-18.56-14.1-32.03-26.79-30.07c-12.69,1.95-21.28,18.58-19.18,37.15
			c2.1,18.56,14.1,32.03,26.79,30.07C152.21,390.25,160.8,373.62,158.7,355.06z"/>
		<path class="st9" d="M149.84,356.18c-1.44-12.68-9.63-21.88-18.31-20.55c-8.67,1.33-14.54,12.7-13.11,25.38
			c1.44,12.68,9.63,21.88,18.31,20.55C145.41,380.23,151.27,368.86,149.84,356.18z"/>
		<path class="st10" d="M148.87,356.57c-1.2-10.63-8.07-18.34-15.34-17.22c-7.27,1.12-12.19,10.64-10.98,21.27
			c1.2,10.63,8.07,18.34,15.34,17.22C145.16,376.72,150.08,367.2,148.87,356.57z"/>
	</g>
	<g>
		<path class="st8" d="M270.63,354.73c-1.21-18.73-12.55-32.31-25.34-30.34c-12.79,1.97-22.18,18.75-20.97,37.47
			c1.21,18.73,12.55,32.31,25.34,30.34C262.45,390.23,271.84,373.46,270.63,354.73z"/>
		<polygon class="st8" points="251.58,368.26 220.8,368.26 220.8,392.39 247.94,392.39 		"/>
		<polygon class="st8" points="249.63,324.39 216.04,324.82 215.47,354.11 246.25,354.11 		"/>
		<path class="st3" d="M241.2,355.06c-2.1-18.56-14.1-32.03-26.79-30.07c-12.69,1.95-21.28,18.58-19.18,37.15
			c2.1,18.56,14.1,32.03,26.79,30.07C234.72,390.25,243.3,373.62,241.2,355.06z"/>
		<path class="st9" d="M232.34,356.18c-1.44-12.68-9.63-21.88-18.31-20.55c-8.67,1.33-14.54,12.7-13.11,25.38
			c1.44,12.68,9.63,21.88,18.31,20.55C227.91,380.23,233.78,368.86,232.34,356.18z"/>
		<path class="st10" d="M231.38,356.57c-1.2-10.63-8.07-18.34-15.34-17.22c-7.27,1.12-12.19,10.64-10.98,21.27
			s8.07,18.34,15.34,17.22C227.66,376.72,232.58,367.2,231.38,356.57z"/>
	</g>
	<g>
		<polygon class="st0" points="411.94,368.26 442.73,368.26 442.73,392.39 417.23,392.39 		"/>
		<polygon class="st0" points="413.9,324.39 447.49,324.82 448.06,354.11 417.27,354.11 		"/>
		<path class="st0" d="M422.32,355.06c2.1-18.56,14.1-32.03,26.79-30.07c12.69,1.95,21.28,18.58,19.18,37.15
			c-2.1,18.56-14.1,32.03-26.79,30.07C428.81,390.25,420.22,373.62,422.32,355.06z"/>
		<path class="st0" d="M431.18,356.18c1.44-12.68,9.63-21.88,18.31-20.55c8.67,1.33,14.54,12.7,13.1,25.38
			c-1.44,12.68-9.63,21.88-18.31,20.55C435.61,380.23,429.75,368.86,431.18,356.18z"/>
		<path class="st0" d="M432.15,356.57c1.2-10.63,8.07-18.34,15.34-17.22c7.27,1.12,12.19,10.64,10.98,21.27
			c-1.2,10.63-8.07,18.34-15.34,17.22C435.86,376.72,430.95,367.2,432.15,356.57z"/>
		<path class="st1" d="M392.9,354.73c1.21-18.73,12.55-32.31,25.34-30.34c12.79,1.97,22.18,18.75,20.97,37.47
			c-1.21,18.73-12.55,32.31-25.34,30.34C401.08,390.23,391.69,373.46,392.9,354.73z"/>
	</g>
	<polygon class="st11" points="294.39,249.78 208.77,249.78 208.77,264.63 297.53,264.63 	"/>
	<polygon class="st4" points="251.45,249.78 207.58,249.78 207.58,264.63 253.05,264.63 	"/>
	<polygon class="st5" points="409.12,256.82 213.91,256.82 213.91,310.86 420.54,310.86 	"/>
	<path class="st6" d="M290.01,256.82H94.8c-9.7,0-9.7,54.04,0,54.04h206.63L290.01,256.82z"/>
	<polygon class="st7" points="290.73,310.86 301.43,310.86 292.73,256.82 227.94,256.82 	"/>
	<rect x="328.64" y="188.99" class="st7" width="37.1" height="16.55"/>
	<polygon class="st5" points="347.7,188.99 328.64,188.99 328.64,195.44 341.72,195.44 	"/>
	<ellipse class="st3" cx="322.54" cy="197.27" rx="13.59" ry="13.66"/>
	<path class="st2" d="M316.4,185.1c0.84,6.73,6.54,11.94,13.47,11.94c2.21,0,4.3-0.54,6.14-1.49c-0.84-6.73-6.54-11.94-13.47-11.94
		C320.33,183.61,318.24,184.16,316.4,185.1z"/>
	<ellipse class="st4" cx="318.35" cy="197.27" rx="13.59" ry="13.66"/>
	<path class="st3" d="M469.34,171.3h-89.33c-3.81,0-3.81,46.52,0,46.52h89.33C476.57,217.82,476.57,171.3,469.34,171.3z"/>
	<path class="st4" d="M383.43,171.3h-25.97c-3.81,0-3.81,46.52,0,46.52h25.97C379.25,217.82,379.25,171.3,383.43,171.3z"/>
	<path class="st6" d="M309.71,197.27c0,4.8,3.87,8.69,8.64,8.69c4.77,0,8.64-3.89,8.64-8.69c0-4.8-3.87-8.69-8.64-8.69
		C313.58,188.58,309.71,192.47,309.71,197.27z"/>
	<path class="st3" d="M314.14,197.27c0,3.37,2.72,6.11,6.07,6.11c3.35,0,6.07-2.73,6.07-6.11s-2.72-6.11-6.07-6.11
		C316.86,191.16,314.14,193.9,314.14,197.27z"/>
	<path class="st6" d="M249.68,139.33h-15.03c-1.05,0-1.9,0.85-1.9,1.9v12.75c0,1.05,0.85,1.9,1.9,1.9h15.03c1.05,0,1.9-0.85,1.9-1.9
		v-12.75C251.58,140.19,250.73,139.33,249.68,139.33z"/>
	<polygon class="st12" points="218.13,176.75 112.5,176.75 57.42,249.72 163.05,249.72 	"/>
	<g>
		<polygon class="st13" points="88.9,236.1 70.85,236.1 62.1,248.4 80.15,248.4 		"/>
		<polygon class="st14" points="109.51,236.1 91.46,236.1 82.71,248.4 100.76,248.4 		"/>
		<polygon class="st14" points="130.12,236.1 112.07,236.1 103.32,248.4 121.37,248.4 		"/>
		<polygon class="st13" points="150.73,236.1 132.67,236.1 123.93,248.4 141.98,248.4 		"/>
		<polygon class="st13" points="171.33,236.1 153.28,236.1 144.53,248.4 162.59,248.4 		"/>
		<polygon class="st13" points="99.56,221.64 81.51,221.64 72.76,233.94 90.81,233.94 		"/>
		<polygon class="st13" points="120.17,221.64 102.11,221.64 93.37,233.94 111.42,233.94 		"/>
		<polygon class="st14" points="140.77,221.64 122.72,221.64 113.97,233.94 132.03,233.94 		"/>
		<polygon class="st14" points="161.38,221.64 143.33,221.64 134.58,233.94 152.63,233.94 		"/>
		<polygon class="st13" points="181.99,221.64 163.94,221.64 155.19,233.94 173.24,233.94 		"/>
		<polygon class="st13" points="110.21,207.18 92.16,207.18 83.41,219.48 101.46,219.48 		"/>
		<polygon class="st13" points="130.82,207.18 112.77,207.18 104.02,219.48 122.07,219.48 		"/>
		<polygon class="st14" points="151.43,207.18 133.38,207.18 124.63,219.48 142.68,219.48 		"/>
		<polygon class="st14" points="172.04,207.18 153.98,207.18 145.24,219.48 163.29,219.48 		"/>
		<polygon class="st13" points="192.64,207.18 174.59,207.18 165.84,219.48 183.9,219.48 		"/>
		<polygon class="st13" points="120.87,192.72 102.82,192.72 94.07,205.02 112.12,205.02 		"/>
		<polygon class="st13" points="141.48,192.72 123.42,192.72 114.68,205.02 132.73,205.02 		"/>
		<polygon class="st13" points="162.08,192.72 144.03,192.72 135.28,205.02 153.34,205.02 		"/>
		<polygon class="st14" points="182.69,192.72 164.64,192.72 155.89,205.02 173.94,205.02 		"/>
		<polygon class="st14" points="203.3,192.72 185.25,192.72 176.5,205.02 194.55,205.02 		"/>
		<polygon class="st13" points="131.52,178.26 113.47,178.26 104.72,190.56 122.77,190.56 		"/>
		<polygon class="st13" points="152.13,178.26 134.08,178.26 125.33,190.56 143.38,190.56 		"/>
		<polygon class="st13" points="172.74,178.26 154.69,178.26 145.94,190.56 163.99,190.56 		"/>
		<polygon class="st13" points="193.35,178.26 175.29,178.26 166.55,190.56 184.6,190.56 		"/>
		<polygon class="st14" points="213.95,178.26 195.9,178.26 187.15,190.56 205.21,190.56 		"/>
	</g>
	<polygon class="st4" points="399.91,260.93 373.41,260.93 382.94,305.23 409.44,305.23 	"/>
	<g>
		<ellipse class="st5" cx="395.52" cy="282.03" rx="17.72" ry="17.81"/>
		<polygon class="st5" points="394.93,264.26 381.17,264.26 386.41,299.94 395.82,299.87 		"/>
		<path class="st15" d="M388.36,290.03c0,0,0.95,6.51,2.56,9.19c1.47,0.4,3,0.63,4.59,0.63c9.79,0,17.72-7.97,17.72-17.81
			c0-3.37-0.95-6.51-2.56-9.19c-1.47-0.4-7.5-2.58-7.5-2.58L388.36,290.03z"/>
		<path class="st6" d="M385.36,264.22c-2.19,0-4.27,0.42-6.2,1.14l5.57,34.45c0.21,0.01,0.42,0.03,0.63,0.03
			c9.79,0,17.72-7.97,17.72-17.81C403.08,272.2,395.15,264.22,385.36,264.22z"/>
	</g>
	<path class="st16" d="M409.22,270.24l-6.04,0.02c0,0,10.68,10.98,9.85,16.72l76.87,10.27l0.38-9.51L409.22,270.24z"/>
	<path class="st6" d="M403.13,270.24c3.3,5.1,4.68,10.65,3.8,16.74l76.87,10.27l0.38-9.51L403.13,270.24z"/>
	<path class="st17" d="M465.8,283.77c0.59,3.87,0.88,7.62,0.83,11.19l17.17,2.3l0.38-9.51L465.8,283.77z"/>
	<path class="st3" d="M233.44,64.08c0,3.03,2.45,5.48,5.48,5.48c3.02,0,5.48-2.45,5.48-5.48c0-3.02-2.45-5.48-5.48-5.48
		C235.89,58.61,233.44,61.06,233.44,64.08z"/>
	<path class="st5" d="M482.58,294.02c0,5.97,4.82,10.82,10.76,10.82c5.94,0,10.76-4.84,10.76-10.82c0-5.98-4.82-10.82-10.76-10.82
		C487.4,283.2,482.58,288.05,482.58,294.02z"/>
	<path class="st6" d="M476.41,294.02c0,5.97,4.82,10.82,10.76,10.82c5.94,0,10.76-4.84,10.76-10.82c0-5.98-4.82-10.82-10.76-10.82
		C481.23,283.2,476.41,288.05,476.41,294.02z"/>
	<polygon class="st15" points="503.39,289.56 500.74,289.56 500.03,296.64 502.67,296.64 	"/>
	<path class="st15" d="M532.94,214.49L498,285.3c2.64,2.37,4.26,6.07,4.67,11.35l33.7-78.45L532.94,214.49z"/>
	<path class="st6" d="M530.3,214.49l-34.94,70.81c2.65,2.37,4.26,6.07,4.67,11.35l33.7-78.45L530.3,214.49z"/>
	<path class="st17" d="M523.43,242.17l10.3-23.97l-3.42-3.71l-9.26,18.77C521.94,236.05,522.74,239.03,523.43,242.17z"/>
	<path class="st5" d="M527.27,218.89c0,3.34,2.69,6.04,6.01,6.04c3.32,0,6.01-2.7,6.01-6.04c0-3.34-2.69-6.04-6.01-6.04
		C529.96,212.85,527.27,215.55,527.27,218.89z"/>
	<path class="st6" d="M523.83,218.89c0,3.34,2.69,6.04,6.01,6.04c3.32,0,6.01-2.7,6.01-6.04c0-3.34-2.69-6.04-6.01-6.04
		C526.52,212.85,523.83,215.55,523.83,218.89z"/>
	<path class="st5" d="M566.07,236.73c-2.51,1.29-5.43,1.83-8.42,1.33c-7.38-1.23-12.37-8.22-11.14-15.6
		c1.23-7.39,8.22-12.37,15.6-11.14c3,0.5,5.69,2.21,7.64,4.24l5.99-4.6c-3.09-3.57-7.39-6.12-12.41-6.96
		c-11.43-1.91-22.24,5.81-24.14,17.24c-1.91,11.43,5.81,22.24,17.24,24.14c5.02,0.84,9.92-0.18,13.99-2.56L566.07,236.73z"/>
	<path class="st18" d="M559.86,238.25c-0.73,0-1.47-0.06-2.21-0.18c-0.29-0.05-0.57-0.12-0.86-0.19l-7.93,3.5l0.68,1.55
		c2.08,1.18,4.38,2.04,6.88,2.45c4.93,0.82,9.75-0.16,13.78-2.45l-7.74,0.19L559.86,238.25z"/>
	<path class="st18" d="M546.34,224.55c0.01-0.69,0.05-1.39,0.17-2.09c1.23-7.39,8.22-12.37,15.6-11.14
		c2.25,0.38,4.34,1.44,6.06,2.81c-1.71-3.94-7.84-6.87-15.16-6.87c-2,0-3.9,0.23-5.66,0.62c-4.06,3.02-7.03,7.51-8.06,12.84
		C540.89,222.39,543.36,223.73,546.34,224.55z"/>
	<polygon class="st4" points="387.18,260.93 373.41,260.93 382.94,305.23 396.7,305.23 	"/>
	<ellipse class="st4" cx="486.23" cy="294.02" rx="6.5" ry="6.54"/>
	<ellipse class="st6" cx="487.37" cy="294.02" rx="4.51" ry="4.53"/>
	<path class="st4" d="M526.04,218.89c0,1.89,1.45,3.43,3.23,3.43c1.79,0,3.23-1.53,3.23-3.43c0-1.89-1.45-3.43-3.23-3.43
		C527.49,215.46,526.04,217,526.04,218.89z"/>
	<path class="st6" d="M527.29,218.77c0,1.33,1.02,2.41,2.27,2.41c1.25,0,2.27-1.08,2.27-2.41c0-1.33-1.02-2.41-2.27-2.41
		C528.31,216.36,527.29,217.44,527.29,218.77z"/>
	<rect x="560.18" y="236.73" class="st5" width="5.89" height="3.64"/>
	<rect x="565.18" y="211.92" class="st5" width="4.57" height="3.64"/>
	<path class="st6" d="M560.23,236.71c-2.59,1.12-5.54,1.47-8.49,0.77c-7.29-1.71-11.81-9.01-10.09-16.3
		c1.71-7.29,9.01-11.81,16.3-10.09c2.96,0.7,5.44,2.32,7.26,4.48l5.37-4.82c-2.85-3.76-5.97-5.72-10.93-6.88
		c-11.28-2.65-22.57,4.34-25.22,15.62c-2.65,11.28,4.34,22.57,15.62,25.22c4.95,1.16,9.91,0.47,14.13-1.63L560.23,236.71z"/>
	<path class="st5" d="M251.58,153.99v-12.75c0-1.05-0.85-1.9-1.9-1.9h-7.61c-1.05,0-1.9,0.85-1.9,1.9v12.75c0,1.05,0.85,1.9,1.9,1.9
		h7.61C250.73,155.89,251.58,155.04,251.58,153.99z"/>
	<g>
		<rect x="101.51" y="266.15" class="st3" width="3.81" height="33.87"/>
		<rect x="108.74" y="266.15" class="st3" width="3.81" height="33.87"/>
		<rect x="115.97" y="266.15" class="st3" width="3.81" height="33.87"/>
		<rect x="123.2" y="266.15" class="st3" width="3.81" height="33.87"/>
		<rect x="130.43" y="266.15" class="st3" width="3.81" height="33.87"/>
		<rect x="137.66" y="266.15" class="st3" width="3.81" height="33.87"/>
		<rect x="144.89" y="266.15" class="st3" width="3.81" height="33.87"/>
	</g>
	<path class="st4" d="M463.86,175.25h-73.83c-3.14,0-3.14,38.62,0,38.62h73.83C469.84,213.87,469.84,175.25,463.86,175.25z"/>
	<path class="st19" d="M463.86,175.25h-73.83c-0.83,0-1.44,2.7-1.83,6.66h66.34c4.4,0,5.56,20.92,3.48,31.96h5.85
		C469.84,213.87,469.84,175.25,463.86,175.25z"/>
	<ellipse class="st19" cx="402.61" cy="196.32" rx="11.7" ry="13.32"/>
	<ellipse class="st19" cx="444.84" cy="196.32" rx="11.7" ry="13.32"/>
	<path class="st17" d="M454.31,196.32c0-6.4-4.56-11.58-10.18-11.58s-10.18,5.19-10.18,11.58c0,6.4,4.56,11.58,10.18,11.58
		S454.31,202.72,454.31,196.32z"/>
	<path class="st5" d="M442.01,186.17c0.33,5.67,4.43,10.17,9.5,10.17c0.59,0,1.16-0.08,1.72-0.2c-0.33-5.67-4.43-10.17-9.5-10.17
		C443.14,185.97,442.57,186.06,442.01,186.17z"/>
	<path class="st17" d="M412.07,196.32c0-6.4-4.56-11.58-10.18-11.58c-5.62,0-10.18,5.19-10.18,11.58c0,6.4,4.56,11.58,10.18,11.58
		C407.51,207.9,412.07,202.72,412.07,196.32z"/>
	<path class="st5" d="M399.77,186.17c0.33,5.67,4.43,10.17,9.5,10.17c0.59,0,1.16-0.08,1.72-0.2c-0.33-5.67-4.43-10.17-9.5-10.17
		C400.91,185.97,400.33,186.06,399.77,186.17z"/>
</g>
</svg>
