<?xml version="1.0" encoding="UTF-8"?>
<svg version="1.1" xmlns="http://www.w3.org/2000/svg" width="512" height="512">
<path d="M0 0 C1.59170649 -0.00644062 3.18341184 -0.01316989 4.77511597 -0.02017212 C8.1053135 -0.03210887 11.43540761 -0.0358569 14.765625 -0.03466797 C18.99495947 -0.0344655 23.22361659 -0.06170896 27.45279121 -0.09621239 C30.74059989 -0.11865705 34.0282504 -0.12250012 37.31612778 -0.12144852 C38.87317095 -0.12378042 40.43022015 -0.13246479 41.98718643 -0.14811325 C60.78189052 -0.31926668 75.67300302 4.40269078 89.6171875 17.5859375 C100.65656164 28.4522807 104.72878538 43.02360403 109.4296875 57.3359375 C110.1245044 59.41997899 110.82048094 61.5036342 111.51757812 63.58691406 C112.9242102 67.79717332 114.32331885 72.0098175 115.71630859 76.22460938 C117.60411167 81.93109962 119.52211775 87.62699485 121.44921875 93.3203125 C122.28422384 95.79437971 123.11850631 98.2686887 123.95230103 100.74316406 C124.4765828 102.29816399 125.00178232 103.85285482 125.52792358 105.40722656 C126.24972133 107.54343021 126.96558119 109.68152755 127.6796875 111.8203125 C128.08058594 113.01366211 128.48148437 114.20701172 128.89453125 115.43652344 C129.7421875 118.3359375 129.7421875 118.3359375 129.7421875 121.3359375 C131.0415625 121.3771875 132.3409375 121.4184375 133.6796875 121.4609375 C156.55440796 123.84842595 177.93901572 138.61075695 192.6171875 155.609375 C207.82859231 175.12694955 215.05123727 196.51416243 215.078125 221.171875 C215.0845738 222.58232754 215.09130359 223.99277882 215.09829712 225.40322876 C215.11018833 228.34306942 215.11398629 231.28279329 215.11279297 234.22265625 C215.11258989 237.953192 215.13991713 241.68296514 215.17433739 245.41332054 C215.19678482 248.32192291 215.20062517 251.2303466 215.19957352 254.13902664 C215.20190179 255.51268776 215.21056464 256.88635598 215.22623825 258.25992966 C215.40635177 275.66746225 210.12323022 290.35746684 198.09375 303.05078125 C190.99689321 309.94722846 183.17947683 315.19017439 173.7421875 318.3359375 C173.98001953 319.90214844 173.98001953 319.90214844 174.22265625 321.5 C177.90358696 351.27434898 172.63164005 378.56724791 154.3125 402.51171875 C140.75521873 419.50407961 123.6565907 431.16328378 102.7421875 437.3359375 C101.7521875 437.65433594 100.7621875 437.97273438 99.7421875 438.30078125 C74.11472844 445.25222952 46.66961613 440.16039153 23.7578125 427.71484375 C1.19938532 414.12110945 -14.80849017 393.57599432 -22.2578125 368.3359375 C-22.57621094 367.3459375 -22.89460938 366.3559375 -23.22265625 365.3359375 C-27.03036899 351.29828685 -26.63146732 334.57786643 -24.2578125 320.3359375 C-35.4778125 320.3359375 -46.6978125 320.3359375 -58.2578125 320.3359375 C-57.9278125 322.3159375 -57.5978125 324.2959375 -57.2578125 326.3359375 C-55.34723664 358.34928315 -61.6705606 384.78952234 -83.25390625 409.1328125 C-95.83475068 422.82143014 -111.44772434 432.07948787 -129.2578125 437.3359375 C-130.2478125 437.65433594 -131.2378125 437.97273438 -132.2578125 438.30078125 C-157.88527156 445.25222952 -185.33038387 440.16039153 -208.2421875 427.71484375 C-230.80061468 414.12110945 -246.80849017 393.57599432 -254.2578125 368.3359375 C-254.73541016 366.8509375 -254.73541016 366.8509375 -255.22265625 365.3359375 C-259.2023148 350.66438525 -258.55613915 333.27506075 -256.2578125 318.3359375 C-257.81628906 317.62630859 -257.81628906 317.62630859 -259.40625 316.90234375 C-275.44900135 309.38465153 -287.26556125 298.93326268 -294.2578125 282.3359375 C-297.32944187 273.80214532 -297.71161037 265.68172241 -297.69140625 256.67578125 C-297.69598512 255.27730562 -297.70129564 253.87883222 -297.70729065 252.48036194 C-297.71616904 249.56144021 -297.71386364 246.64279274 -297.70385742 243.72387695 C-297.69470091 240.76916075 -297.70151247 237.815237 -297.72436523 234.8605957 C-297.98410718 201.10683855 -292.34826693 173.50762318 -268.2578125 148.3359375 C-250.23220057 130.38618603 -225.7020298 120.04680027 -200.25057983 119.962677 C-198.93570587 119.97346283 -197.62083191 119.98424866 -196.26611328 119.99536133 C-194.82564309 119.99621022 -193.3851716 119.99572737 -191.94470215 119.99403381 C-188.08190052 119.99318263 -184.21938561 120.01066386 -180.35664988 120.03175569 C-176.30214344 120.05067101 -172.24762847 120.05228451 -168.19308472 120.05583191 C-160.53655631 120.06510917 -152.88015835 120.08966362 -145.22368705 120.11988038 C-136.49803298 120.15355991 -127.77237227 120.16994427 -119.04666924 120.18496668 C-101.11697672 120.2162177 -83.18740515 120.26889294 -65.2578125 120.3359375 C-65.26669495 119.47531204 -65.27557739 118.61468658 -65.284729 117.72798157 C-65.36531952 109.56462657 -65.42600082 101.40140773 -65.46506119 93.23774433 C-65.48581857 89.04202939 -65.51391538 84.84664679 -65.55957031 80.65112305 C-65.60345636 76.59213749 -65.62703836 72.53346889 -65.63732147 68.47426414 C-65.64463703 66.93590502 -65.6589194 65.39756062 -65.68073273 63.85933876 C-65.92470463 45.91985493 -61.14216413 30.80874987 -48.59765625 17.6171875 C-34.45858439 3.83218255 -19.17435119 0.01831301 0 0 Z M-19.2578125 46.3359375 C-24.30028869 52.71398847 -25.38838023 58.4468336 -25.37133789 66.52490234 C-25.37121704 67.74234131 -25.37109619 68.95978027 -25.37097168 70.21411133 C-25.36585571 71.47892334 -25.36073975 72.74373535 -25.35546875 74.046875 C-25.35446167 75.22032471 -25.35345459 76.39377441 -25.35241699 77.6027832 C-25.3471982 81.97217796 -25.33323695 86.34155874 -25.3203125 90.7109375 C-25.2996875 100.4871875 -25.2790625 110.2634375 -25.2578125 120.3359375 C11.3721875 120.3359375 48.0021875 120.3359375 85.7421875 120.3359375 C84.5513243 114.97705311 83.44666088 110.06747636 81.77441406 104.91748047 C81.39351624 103.73950897 81.01261841 102.56153748 80.62017822 101.34786987 C80.21184753 100.10385406 79.80351685 98.85983826 79.3828125 97.578125 C79.1714843 96.93316196 78.9601561 96.28819893 78.74242401 95.62369156 C77.62540684 92.21633054 76.50291944 88.8108287 75.37597656 85.40673828 C74.22085323 81.91368116 73.08548244 78.4145294 71.95438004 74.91363335 C71.07319406 72.19886173 70.17718189 69.48914844 69.27721405 66.78055191 C68.64747742 64.87255721 68.03353429 62.95937281 67.41998291 61.04611206 C64.73126549 53.04044459 62.14179547 47.08569248 54.7421875 42.4609375 C48.0580942 39.95440251 41.32447872 40.17536647 34.28125 40.16796875 C33.17671478 40.16464035 32.07217957 40.16131195 30.93417358 40.15788269 C28.60260432 40.15283057 26.27102786 40.15047383 23.93945312 40.15063477 C20.3865967 40.14844944 16.83405151 40.13027837 13.28125 40.11132812 C11.01041772 40.10839356 8.73958398 40.10640919 6.46875 40.10546875 C5.41329987 40.09828323 4.35784973 40.09109772 3.27041626 40.08369446 C-5.13426438 40.10952445 -12.57501217 40.69268389 -19.2578125 46.3359375 Z M-242.34765625 181.0234375 C-256.59093563 198.26683504 -257.44504959 216.5401663 -257.44311523 237.81616211 C-257.44531619 240.52798844 -257.46357154 243.23941637 -257.48242188 245.95117188 C-257.48535425 247.6979153 -257.48734009 249.44466062 -257.48828125 251.19140625 C-257.49546677 251.99055954 -257.50265228 252.78971283 -257.51005554 253.61308289 C-257.47903562 261.32333597 -256.38892657 268.25961821 -251.2578125 274.3359375 C-247.77917325 277.15304065 -244.79988601 279.07099064 -240.34765625 279.8359375 C-236.03591026 279.13820869 -234.31871089 276.68915009 -231.6953125 273.4609375 C-215.89173626 255.32442883 -192.24141104 242.7789083 -168.04125977 241.11474609 C-135.93557075 240.0149958 -111.25992264 247.31076644 -86.88412476 268.60757446 C-85.2578125 270.3359375 -85.2578125 270.3359375 -83.7616272 272.78182983 C-80.99866319 277.1315717 -78.90275436 279.87766127 -73.82225037 281.29307556 C-69.53251786 281.67713572 -65.34482449 281.75552912 -61.04296875 281.69921875 C-59.46168684 281.70851133 -57.88041924 281.72061968 -56.29917908 281.73539734 C-52.99412459 281.75458857 -49.69177716 281.73738709 -46.38696289 281.69458008 C-42.17054386 281.64321863 -37.9613162 281.68636253 -33.74540043 281.75750446 C-30.48218774 281.80136103 -27.22066218 281.79275117 -23.957304 281.7689724 C-22.40448704 281.76418312 -20.85152316 281.77574249 -19.29896736 281.80462074 C-10.20416671 282.00980295 -10.20416671 282.00980295 -2.35643005 277.90283203 C-0.09736833 275.14454674 1.82499398 272.33689586 3.7421875 269.3359375 C18.54656259 253.16473793 42.24566281 242.60035661 63.95288086 241.11645508 C96.02976866 240.00327389 121.18913352 247.25569066 145.29101562 268.94287109 C148.09920725 271.63862167 150.52167674 274.65168775 152.86328125 277.75390625 C154.7171606 279.60727997 154.7171606 279.60727997 157.7109375 279.69921875 C163.02181659 279.06273453 166.91209837 276.53114294 170.328125 272.43359375 C174.72910047 265.80669138 174.89933787 259.27472229 174.91015625 251.52734375 C174.91348465 250.68356674 174.91681305 249.83978973 174.92024231 248.97044373 C174.92529043 247.18611187 174.92765129 245.40177063 174.92749023 243.61743164 C174.92965541 240.93814692 174.94777435 238.25928898 174.96679688 235.58007812 C175.04330604 212.83232179 172.07468729 194.52033601 156.0546875 177.1484375 C140.71464829 162.55742364 122.88456435 160.17582125 102.7131958 160.20222473 C101.43229403 160.19995917 100.15139226 160.19769362 98.83167529 160.19535941 C95.30119665 160.18928063 91.77074184 160.18937034 88.24025917 160.19055378 C84.42281357 160.19075879 80.60537543 160.18522958 76.78793335 160.18049622 C69.31824547 160.17221076 61.84856547 160.16944233 54.37887338 160.16888384 C48.30371586 160.1684077 42.22856093 160.16634806 36.15340424 160.16318321 C18.90741977 160.15438254 1.66144151 160.14976294 -15.58454522 160.15051369 C-16.51312968 160.15055364 -17.44171413 160.1505936 -18.3984375 160.15063477 C-19.32816318 160.15067565 -20.25788885 160.15071653 -21.21578804 160.15075865 C-36.27917829 160.151165 -51.34254353 160.14159672 -66.40592656 160.1274964 C-81.89426248 160.11311335 -97.38258623 160.10622727 -112.870929 160.10709018 C-121.55787161 160.10742147 -130.24478798 160.10470408 -138.93172455 160.09391212 C-146.32824121 160.08478173 -153.72471976 160.08265268 -161.12123963 160.08942155 C-164.89006612 160.09267391 -168.65881958 160.09279018 -172.42763901 160.0840683 C-176.52544262 160.07468315 -180.62307907 160.08101269 -184.72088623 160.08869934 C-185.89504302 160.08355578 -187.06919981 160.07841221 -188.2789371 160.07311279 C-209.59674307 160.16099873 -227.34502686 165.25065259 -242.34765625 181.0234375 Z M-200.4453125 299.0234375 C-212.46638154 311.66160454 -216.92468748 326.03993471 -216.79907227 343.09472656 C-216.23429764 359.85114427 -209.03674621 373.54419739 -196.91015625 385.05078125 C-184.50873167 395.73536649 -169.23575606 401.18621656 -152.859375 400.11328125 C-135.7383294 398.16684891 -121.39102975 390.54483932 -110.2578125 377.3359375 C-99.47745784 362.84431321 -96.93736819 347.98634468 -98.2578125 330.3359375 C-99.11447787 325.74532853 -100.45234407 321.63438717 -102.2578125 317.3359375 C-102.58523437 316.48128906 -102.91265625 315.62664062 -103.25 314.74609375 C-109.32989022 300.70021599 -122.48673669 290.23482821 -136.2578125 284.3359375 C-159.47059633 275.37074375 -182.71103783 282.66926203 -200.4453125 299.0234375 Z M31.5546875 299.0234375 C19.53361846 311.66160454 15.07531252 326.03993471 15.20092773 343.09472656 C15.76570236 359.85114427 22.96325379 373.54419739 35.08984375 385.05078125 C47.49126833 395.73536649 62.76424394 401.18621656 79.140625 400.11328125 C96.2616706 398.16684891 110.60897025 390.54483932 121.7421875 377.3359375 C132.52254216 362.84431321 135.06263181 347.98634468 133.7421875 330.3359375 C132.88552213 325.74532853 131.54765593 321.63438717 129.7421875 317.3359375 C129.41476562 316.48128906 129.08734375 315.62664062 128.75 314.74609375 C122.67010978 300.70021599 109.51326331 290.23482821 95.7421875 284.3359375 C72.52940367 275.37074375 49.28896217 282.66926203 31.5546875 299.0234375 Z " fill="#000000" transform="translate(297.2578125,71.6640625)"/>
<path d="M0 0 C12.67509386 9.86461049 22.25717381 22.85371895 25 39 C26.57180562 56.85760429 24.19779234 73.18170456 12.9296875 87.66015625 C5.59192083 96.13566026 -2.57138832 102.72210069 -13 107 C-13.66 107 -14.32 107 -15 107 C-14.9685791 107.86165771 -14.9371582 108.72331543 -14.90478516 109.61108398 C-14.80172663 112.84829594 -14.72692558 116.0846645 -14.67041016 119.32299805 C-14.6404767 120.71683482 -14.59971229 122.11048713 -14.54736328 123.50366211 C-14.25514732 131.48803361 -14.30840675 137.78884454 -19.40771484 144.328125 C-24.26173433 149.42477103 -27.97719195 150.2764011 -34.875 150.625 C-40.69816348 150.44534921 -44.42118226 149.3785676 -49.1328125 145.99609375 C-56.09253892 138.55588413 -55.48896675 131.22149096 -55.25 121.5625 C-55.2299083 120.14911379 -55.21166223 118.73570007 -55.1953125 117.32226562 C-55.15151817 113.88093317 -55.08263903 110.44064425 -55 107 C-55.93102539 106.69835937 -56.86205078 106.39671875 -57.82128906 106.0859375 C-72.13592178 101.19565437 -82.49299248 90.78182761 -89.3046875 77.54296875 C-96.05291237 63.4401117 -97.69815211 47.01619039 -93.375 31.8125 C-87.19161406 15.26601777 -76.47141403 2.36232621 -60.4375 -5.3125 C-40.92401888 -14.20441087 -17.72932981 -11.85467818 0 0 Z M-52 39.5625 C-54.91388882 44.80551763 -54.95610282 50.17717706 -54 56 C-52.04435326 61.44530996 -48.40701267 65.34964702 -43.37109375 68.1484375 C-37.89747817 70.11425002 -32.10252183 70.11425002 -26.62890625 68.1484375 C-21.59298733 65.34964702 -17.95564674 61.44530996 -16 56 C-15.04389718 50.17717706 -15.08611118 44.80551763 -18 39.5625 C-21.70529004 34.6186729 -25.73267371 31.53649234 -31.90234375 30.5234375 C-40.74979717 30.09947378 -46.65836177 32.43535595 -52 39.5625 Z " fill="#000000" transform="translate(171,10)"/>
<path d="M0 0 C1.7510051 -0.01285538 1.7510051 -0.01285538 3.53738403 -0.02597046 C5.99999403 -0.03742637 8.46267168 -0.03848017 10.92529297 -0.02978516 C14.67664032 -0.02346894 18.42482399 -0.07039849 22.17578125 -0.12109375 C24.57551688 -0.12564079 26.97526094 -0.12704624 29.375 -0.125 C30.48777313 -0.14341949 31.60054626 -0.16183899 32.74703979 -0.18081665 C40.31150318 -0.09173485 45.12370579 1.54941644 50.8203125 6.6015625 C55.40488749 11.96886981 55.54661615 17.19292691 55.33203125 24.1484375 C54.5643017 29.32914681 52.64224168 33.02645067 48.8203125 36.6015625 C42.57463879 41.13631885 37.2176352 41.21549178 29.640625 41.203125 C28.47328827 41.21169525 27.30595154 41.2202655 26.10324097 41.22909546 C23.64063097 41.24055137 21.17795332 41.24160517 18.71533203 41.23291016 C14.96398468 41.22659394 11.21580101 41.27352349 7.46484375 41.32421875 C5.06510812 41.32876579 2.66536406 41.33017124 0.265625 41.328125 C-0.84714813 41.34654449 -1.95992126 41.36496399 -3.10641479 41.38394165 C-10.67087818 41.29485985 -15.48308079 39.65370856 -21.1796875 34.6015625 C-25.76426249 29.23425519 -25.90599115 24.01019809 -25.69140625 17.0546875 C-24.9236767 11.87397819 -23.00161668 8.17667433 -19.1796875 4.6015625 C-12.93401379 0.06680615 -7.5770102 -0.01236678 0 0 Z " fill="#000000" transform="translate(241.1796875,271.3984375)"/>
<path d="M0 0 C4.68796317 2.8950501 8.77605467 6.42344712 10.234375 11.89453125 C11.16656452 18.74158704 11.3930195 24.99387098 7.671875 31.01953125 C3.66347868 35.99068326 0.31000422 38.47580101 -6.0078125 39.3359375 C-13.1275177 39.69575056 -18.34453314 39.19135672 -23.98828125 34.640625 C-29.08369757 29.63479842 -30.03494232 26.05750776 -30.390625 19.01953125 C-30.17838344 12.13997715 -28.58962241 7.80486419 -23.765625 2.89453125 C-17.29271618 -2.6344117 -7.84970384 -3.13766411 0 0 Z " fill="#000000" transform="translate(381.765625,393.10546875)"/>
<path d="M0 0 C4.68796317 2.8950501 8.77605467 6.42344712 10.234375 11.89453125 C11.16656452 18.74158704 11.3930195 24.99387098 7.671875 31.01953125 C3.66347868 35.99068326 0.31000422 38.47580101 -6.0078125 39.3359375 C-13.1275177 39.69575056 -18.34453314 39.19135672 -23.98828125 34.640625 C-29.08369757 29.63479842 -30.03494232 26.05750776 -30.390625 19.01953125 C-30.17838344 12.13997715 -28.58962241 7.80486419 -23.765625 2.89453125 C-17.29271618 -2.6344117 -7.84970384 -3.13766411 0 0 Z " fill="#000000" transform="translate(149.765625,393.10546875)"/>
</svg>
